/* XPM */
/* C:\Program Files\Quake III Arena\Check for Quake III Arena Updates.exe */
static char *icon[] = {
"32 32 9 2",
"00 c #000000",
"04 c #000080",
"07 c #808080",
"08 c #C0C0C0",
"0B c #FFFF00",
"0C c #0000FF",
"0E c #00FFFF",
"0F c #FFFFFF",
"   c None",
"                      07070707070707070707070707070707          ",
"                    0708080808080808080808080808080F0700        ",
"                  070F0F0F0F0F0F0F0F0F0F0F0F0F0F0F070700        ",
"                070F080808080808080808080808080808070700        ",
"                070F070707070707070707070707070F08070700        ",
"                070F070000000000000000000000070F08070700        ",
"                070F07000C0C0C0C0C0C0C0C0C0C070F08070700        ",
"                070F07000C0E0C0C0C0C0C0C0C0C070F08070700        ",
"                070F07000C0E0C0C0C0C0C0C0C0C070F08070700        ",
"                070F07000C0C0C0C0C0C0C0C0C0C070F08070700        ",
"        0700    070F07000C0C0C0C0C0C0C0C0C0C070F08070700        ",
"      070F00    07070707070C0C0C0C0C0C0C0C0C070F08070700        ",
"    070F0800  070F0F0F0F0800040C0C0C0C0C0C0C070F08070700        ",
"  070F08070800070F0F0F0F08000007070707070707070F08070700        ",
"070F08070808080007070707070008080F0F0F0F0F0F0F0F08070700070707  ",
"0708070808080707080F0F0F0000070708080808080808080807000707080700",
"070708070707070708080F000400000000000000000000000000070708070700",
"  07070F0F0F0F0F000800040400070707070707070707070707070807070700",
"    070F0F0F0F0F00000404040008080F0F0F0F0F0F0F0F0F0F0F0707070700",
"    040C0C0C0C0C000404040400070708080808080808080808080707070700",
"    040C0C0C0C0C040404040700070700000000000000000000080707070700",
"    040C0C0C0C0C0404040807000707080007080F08070700070807070700  ",
"    040C0C0C0C0C04040808070007070007070707070700070707070700    ",
"    040C0C0C0C0C04080808070007000B0F0B0F0B0F0B070707070700      ",
"    070F0F0F0F0F0708080807000000000000000000000000000000        ",
"    070F0F0F0F0F070808080700                                    ",
"    070F0F0F0F0F070808080700                                    ",
"    070F0F0F0F0F0708080700              07070707070707070700    ",
"    070F0F0F0F0F07080700              070F0B0F0B0F0B0F0B00      ",
"    070F0F0F0F0F070700              07080808070708080700        ",
"    0708080808080700              07080808070F08070700          ",
"    00000000000000              00000000000000000000            "};
