/* XPM */
/* C:\Program Files\Quake III Arena\quake3.exe */
static char *icon[] = {
"48 48 7 2",
"01 c #800000",
"1D c #330000",
"1E c #660000",
"1F c #990000",
"20 c #CC0000",
"F9 c #FF0000",
"   c None",
"                                                                                                ",
"                                              1D1D                                              ",
"                                              1E01                                              ",
"                                              0101                                              ",
"                                              0101                                              ",
"                                              011F                                              ",
"                                              1F1F                                              ",
"                                              1F1F                                              ",
"                                              1F1F                                              ",
"                                              1F1F                                              ",
"                                              1F20                                              ",
"                                              1F20                                              ",
"                                              2020                                              ",
"                                              2020                                              ",
"                                              2020                                              ",
"                                              2020                                              ",
"            1D1E1D                            20F9                            1D1E1D            ",
"      1D011F1F1E1D                            20F91D                            1E1F1F011D      ",
"    1FF9011D                                  F9F91D                                1D01201F1D  ",
"  01F91E                                    1DF9F91D                                    1DF901  ",
"  01F91E                                    1DF9F91D                                    1EF91F  ",
"  01F9F91F011E                              1DF9F91E                              1D011FF9F901  ",
"    1FF9F9F9F920201F01011E1E1D1D            1EF9F91E            1D1D1E1E01011F2020F9F9F9F91F    ",
"      1E1FF9F9F9F9F9F9F9F9F9F9F9F9202020201D1EF9F91E1D20202020F9F9F9F9F9F9F9F9F9F9F9F91F1E      ",
"          1D011F20F9F9F9F9F9F9F9F9F9F9F9F91D1EF9F91E1DF9F9F9F9F9F9F9F9F9F9F9F9201F011D          ",
"                  1D011F2020F9F9F9F9F9F9F91D1EF9F901  F9F9F9F9F9F9F920201F011E                  ",
"                            1D1E010120F9F9  1EF9F901  20F92001011E1D                            ",
"                                    01F9F9  1EF9F901  20F91F                                    ",
"                                    01F920  1EF9F901  20F901                                    ",
"                                    01F920  1EF9F901  20F901                                    ",
"                                    1EF920  1EF9F91E  1FF901                                    ",
"                                    1EF920  1DF9F91E  1FF91E                                    ",
"                                    1DF91F  1DF9F91D  1FF91E                                    ",
"                                    1DF91F  1DF9F91D  1FF91D                                    ",
"                                    1DF91F    20F91D  01F91D                                    ",
"                                      F91F    20F9    01F91D                                    ",
"                                      2001    2020    01F9                                      ",
"                                      2001    2020    0120                                      ",
"                                      1F01    2020    1E20                                      ",
"                                      1F01    1F20    1E1F                                      ",
"                                      0101    1F1F    1E1F                                      ",
"                                      011E    1F1F    1E01                                      ",
"                                      011E    1F1F    1E01                                      ",
"                                      1E1D    011F    1D1E                                      ",
"                                              0101                                              ",
"                                              0101                                              ",
"                                              1D1D                                              ",
"                                                                                                "};
