/* XPM */
/* C:\Program Files\Mplayer\Programs\Mplaunch.exe */
static char *icon[] = {
"32 32 41 2",
"00 c #000000",
"05 c #800080",
"0F c #1C1C1C",
"10 c #222222",
"11 c #292929",
"12 c #555555",
"13 c #4D4D4D",
"1D c #330000",
"1E c #660000",
"22 c #333300",
"23 c #663300",
"29 c #666600",
"2A c #996600",
"30 c #999900",
"31 c #CC9900",
"32 c #FF9900",
"38 c #FFCC00",
"3C c #000033",
"3D c #330033",
"3E c #660033",
"3F c #990033",
"40 c #CC0033",
"43 c #333333",
"4A c #666633",
"4B c #996633",
"51 c #999933",
"52 c #CC9933",
"59 c #FFCC33",
"5E c #FFFF33",
"61 c #660066",
"64 c #FF0066",
"67 c #663366",
"6D c #666666",
"74 c #CC9966",
"7A c #FFCC66",
"82 c #993399",
"8C c #663399",
"8D c #996699",
"E5 c #FFFF66",
"EC c #868686",
"   c None",
"ECECECECECECECECECECECECECECECECECECECECECECECECECECECECECECEC00",
"EC00000000000000000000000000000000000000000000000000000000000000",
"EC0000000000000000000F4B00000000000000004A0F00000000000000000000",
"EC000000000000000F527A5E3100000000000000597A74110000000000000000",
"EC00000000004A7AE5592A1D2A00000000000022312A59E57A4A000000000000",
"EC0000004B7AE55931230000006743674367000F0000223159E57A5100000000",
"EC004AE5E559312A0000000000828D8D8D8D8CEC00000000233159E5E54B0000",
"EC00007A7A382A000000000000128D828D8D8D6D0000000000002A7A7A290000",
"EC00007A7A5929000000000000003D3D3D3D670F00000000000023E57A0F0000",
"EC004AE57A310000000000000000676767673D000000000000000059E54B0000",
"EC00527A32230011673D00000000678205053D000000000F6700002AE57A0000",
"EC007A592A0000008C8267670F0043056761000F436767828D00001D59E52200",
"EC4AE532230000000F828C82826767676767670582058C8D0000000031E54B00",
"EC52E57A310F000000056767676767676767676767678CEC0000000059E57A00",
"EC227A7A310F000000056767676767676767678C67678CEC000000007A7A2A00",
"EC00527A31000000008C676767618C6767828DEC6767056D00000000597A0000",
"EC00525930000000008C678C67003D058D8D0F138C67826700000000527A0000",
"EC0052592A0000000067678CEC00003C130000678C678267000000004B590000",
"EC0051E55922000000676767EC000000000000678C6782670000004A7A520000",
"EC002251E52A000000678C678D0F00000000006767678D670000007A59290000",
"EC0000004B3800000F8C8C678D10000000000F82676782130000225923000000",
"EC0000000052003D828282058D67000000003D82828282670000512A00000000",
"EC000000000000003C3C3D3D3D0F00000000003C3C3C3C3C0000000000000000",
"EC0000001D1D00001D000000001D1D0000000000001D1D1D001D3E1D00000000",
"EC00001D6440401D403F000000404000643E1D641D4040401D3F40403F000000",
"EC00000064003F3F3F3F0000004040001E40403F00401E00003F1E1E40000000",
"EC000000404040003F3F00001E3F3F3E0040640000404040003F40403E000000",
"EC000000643F0000403F00003F404040003E400000401D00003F3F401E000000",
"EC000000641D000040403E1D643F3E64003F640000643F3E1D403F1D641D0000",
"EC0000003F0000003E3F3F1D3E00003F1D1D3F00003F3F3F1D1E1D003E1D0000",
"EC00000000000000000000000000000000000000000000000000000000000000",
"0000000000000000000000000000000000000000000000000000000000000000"};
