/* XPM */
/* C:\windows\IsUninst.exe */
static char *icon[] = {
"32 32 8 2",
"00 c #000000",
"01 c #BF0000",
"07 c #C0C0C0",
"08 c #808080",
"09 c #FF0000",
"0C c #0000FF",
"0F c #FFFFFF",
"   c None",
"              000000      0000                                  ",
"              000808000000      00                              ",
"        0000000F07070808080000000F000000                        ",
"    00000F0F000F000000070708080800000F0800                      ",
"  000F0F08000F070009090007070707000F07070800                    ",
"  000F0808000F070009000F000707000F070007070800  00              ",
"    080F0F08080707000F0F0F00000F07000F00070708000F0000          ",
"    0807070F0F080807000F0F000F07000F0C0F00070708000F0F0000      ",
"    08070707070F0F080800000F07000F0C0C0F0F0007070800070F0F00    ",
"    080707070707070F0F080807000F0C0C0C0C0C0C070707080007070F00  ",
"      08070707070707070F0F08080C000C0C0F0F000000070708080F0F00  ",
"      080707090707070707070F0F08080F0C0F0000000008080F0F0800    ",
"      0807070109010707070707070F0F0808000F0F08080F0F08080800    ",
"      08070709010F01090707070707070F0F0808080F0F080808080800    ",
"      08070701090F090109010707070707070F0F0F0808080808080800    ",
"        080709010F01090F0901090707070707070808080808080800      ",
"        080701090F09010F01090F0901070707070808080808080800      ",
"        080709010F01090F09010F0109010907070808080808080800      ",
"        080701090F09010F01090F0F01090F09070808080808080800      ",
"        080707010F01090F09010F0F09010F01070808080808080800      ",
"          0807090F09010F01090F090F090F090708080808080800        ",
"          080701090F090F09010F010F010F010708080808080800        ",
"          08070901090F0F01090F090F090F090708080808080800        ",
"          0807070701090109010F01090F0F010708080808080800        ",
"          0000070707070901090F09010F0F090708080808080800        ",
"              00000707070701090109010F0107080808080800          ",
"                  0000070707070901090F0907080808080800          ",
"                      00000707070701090107080808080800          ",
"                          0000070707070907080808080800          ",
"                              0000070707070808080000            ",
"                                  00000707080000                ",
"                                      000000                    "};
