/* XPM */
/* C:\Program Files\Mplayer\system\unwise32.exe */
static char *icon[] = {
"32 32 9 2",
"00 c #000000",
"03 c #808000",
"04 c #000080",
"07 c #C0C0C0",
"08 c #808080",
"0B c #FFFF00",
"0C c #0000FF",
"0F c #FFFFFF",
"   c None",
"                    080808080808080808080808080800              ",
"                  080F0F0F0F0F0F0F0F0F0F0F0F0F0F0800            ",
"            0808080F0F0F0B070B070B070B070B070B03080B00          ",
"        08080F0F08080808080808080808080B070B070308070B00        ",
"      080F0F0808080F0F0F0F0F0F0F0F0F08000B070B03080B0700        ",
"      080F080808080F0F0F0F0F0F0F0F0F0807000B070308070B00        ",
"      080F0F0808080F0F0F0F0F0F0F0F0F080707000B03080B0700        ",
"      0807070F0F080F0F0F0F0F0F0F0F0F00000000000308070B0008      ",
"      08070707070F0F07070C0C0C0C0C0F0F0808080003080B07000F0808  ",
"        0807070707070F0F07070F0F0F0F0F0F0F0F000308070007070F0F00",
"        08000707070708080F0707070C0C0C0C0F0F000308000707070F0F00",
"      080F00070708080808080F0F0F07070F0F0F0F000308070F0F0F080800",
"    080F070007080F0F0F0F070007070F0F07070707000F0F0F080808080800",
"  080F07080700080F0F0F0F0700070707070F0F0F0F0F0808080808080800  ",
"080F0708070707000808080808000707070707070708080808080808080800  ",
"0807080707070808070F0F0F00000707070707070708080808080808080800  ",
"080807080808080807070F0004000707070707070708080808080808080800  ",
"  08080F0F0F0F0F00070004040007070707070707080808080808080800    ",
"    080F0F0F0F0F00000404040007070707070707080808080808080800    ",
"    040C0C0C0C0C00040404040007070707070707080808080808080800    ",
"    040C0C0C0C0C04040404080007070707070707080808080808080800    ",
"    040C0C0C0C0C040404070800070707070707070808080808080800      ",
"    040C0C0C0C0C040407070800070707070707070808080808080800      ",
"    040C0C0C0C0C040707070800070707070707070808080808080800      ",
"    080F0F0F0F0F080707070800070707070707070808080808080800      ",
"    080F0F0F0F0F0807070708000707070707070708080808080800        ",
"    080F0F0F0F0F0807070708000707070707070708080808080800        ",
"    080F0F0F0F0F0807070800000808070707070708080808080800        ",
"    080F0F0F0F0F08070800    0000080807070708080808080800        ",
"    080F0F0F0F0F080800          0000080807080808080000          ",
"    0807070707070800                00000808080000              ",
"    00000000000000                      000000                  "};
